# xmcd
#
# Track frame offsets: 
#        150
#        14585
#        29213
#        51828
#        68084
#        91254
#        109203
#        121804
#        138048
#        154009
#        178391
#        192281
#        204715
#        221797
#        239098
#        254371
#        267283
#        285147
#        300720
#
# Disc length: 4374 seconds
#
# Revision: 0
# Processed by: cddbd v1.5.1PL0 Copyright (c) Steve Scherf et al.
# Submitted via: ExactAudioCopy v0.95a5
#
DISCID=1f111413
DTITLE=Johnny Cash - 1996-07-09 Irving Plaza, New York, NY
DYEAR=1996
DGENRE=Country
TTITLE0=Folsom Prison Blues
TTITLE1=Get Rhythm When You Get the Blues
TTITLE2=Sunday Morning Coming Down
TTITLE3=(Ghost) Riders in the Sky
TTITLE4=A Cowboy's Prayer > Oh, Bury Me Not
TTITLE5=I Never Picked Cotton
TTITLE6=Unchained
TTITLE7=Rowboat
TTITLE8=Rusty Cage
TTITLE9=Southern Accents
TTITLE10=Memories Are Made of This
TTITLE11=Ring of Fire
TTITLE12=Intros > Walk the Line
TTITLE13=I've Got Jesus in My Soul
TTITLE14=Jackson
TTITLE15=If I Were a Carpenter
TTITLE16=Wabash Cannonball
TTITLE17=Wildwood Flower
TTITLE18=June yakking > I Used to Be Somebody
EXTD=
EXTT0=
EXTT1=
EXTT2=
EXTT3=
EXTT4=
EXTT5=
EXTT6=
EXTT7=
EXTT8=
EXTT9=
EXTT10=
EXTT11=
EXTT12=
EXTT13=
EXTT14=
EXTT15=
EXTT16=
EXTT17=
EXTT18=
PLAYORDER=
